<svg id="Layer_1" data-name="Layer 1" xmlns="http://www.w3.org/2000/svg" xmlns:xlink="http://www.w3.org/1999/xlink" viewBox="0 0 396 299"><defs><style>.cls-1{fill:none;}.cls-2{fill:url(#radial-gradient);}.cls-3{fill:url(#linear-gradient);}.cls-4{fill:#fff;}.cls-5{fill:url(#linear-gradient-2);}.cls-10,.cls-11,.cls-6,.cls-7,.cls-8,.cls-9{isolation:isolate;font-family:Magneto-Bold, Magneto;font-weight:700;}.cls-6{font-size:50.93px;}.cls-7{font-size:50.93px;}.cls-7,.cls-9{fill:#6a4ea0;}.cls-8{font-size:42.35px;}.cls-9{font-size:42.35px;}.cls-10{font-size:47.02px;}.cls-11{font-size:47.02px;fill:#6a4d9f;}</style><radialGradient id="radial-gradient" cx="421.46" cy="161.78" r="138.73" gradientTransform="translate(-182.57 88.69) scale(0.91 0.94)" gradientUnits="userSpaceOnUse"><stop offset="0.03" stop-color="#d2489a"/><stop offset="0.1" stop-color="#d13c95"/><stop offset="0.28" stop-color="#d86daa"/><stop offset="0.49" stop-color="#d96fab"/><stop offset="0.78" stop-color="#bf469a"/></radialGradient><linearGradient id="linear-gradient" x1="168.78" y1="161.87" x2="231.22" y2="161.87" gradientTransform="matrix(1, 0, 0, -1, 0, 402)" gradientUnits="userSpaceOnUse"><stop offset="0" stop-color="#fff"/><stop offset="0" stop-color="#fdfcfd"/><stop offset="0.01" stop-color="#ead8e9"/><stop offset="0.02" stop-color="#d9b9d8"/><stop offset="0.04" stop-color="#ca9dc8"/><stop offset="0.05" stop-color="#be87bc"/><stop offset="0.07" stop-color="#b576b2"/><stop offset="0.09" stop-color="#af6bac"/><stop offset="0.12" stop-color="#ab64a8"/><stop offset="0.2" stop-color="#aa62a7"/><stop offset="0.45" stop-color="#7f298a"/><stop offset="0.77" stop-color="#974c9d"/></linearGradient><linearGradient id="linear-gradient-2" x1="2" y1="212.59" x2="398" y2="212.59" gradientTransform="matrix(1, 0, 0, -1, 0, 402)" gradientUnits="userSpaceOnUse"><stop offset="0" stop-color="#fff"/><stop offset="0" stop-color="#fbf8fb"/><stop offset="0" stop-color="#e6cfe6"/><stop offset="0" stop-color="#d2a9d2"/><stop offset="0" stop-color="#c189c1"/><stop offset="0" stop-color="#b26db2"/><stop offset="0" stop-color="#a757a7"/><stop offset="0" stop-color="#9e469e"/><stop offset="0" stop-color="#983b98"/><stop offset="0" stop-color="#943494"/><stop offset="0" stop-color="#933293"/><stop offset="0.42" stop-color="#0066b2"/><stop offset="0.62" stop-color="#465ba9"/><stop offset="1" stop-color="#833e98"/></linearGradient></defs><ellipse class="cls-1" cx="198" cy="169.13" rx="21.44" ry="22.11"/><path class="cls-2" d="M200,110.27c-69.55,0-125.93,58.14-125.93,129.86S130.45,370,200,370s125.93-58.14,125.93-129.87S269.55,110.27,200,110.27ZM200,282c-22.41,0-40.58-18.74-40.58-41.86s18.17-41.85,40.58-41.85,40.58,18.74,40.58,41.85S222.41,282,200,282Z" transform="translate(-2 -71)"/><path class="cls-3" d="M200,207.93c-17.25,0-31.22,14.42-31.22,32.2s14,32.19,31.22,32.19,31.22-14.42,31.22-32.19S217.24,207.93,200,207.93Zm0,54.31c-11.84,0-21.44-9.9-21.44-22.11S188.15,218,200,218s21.44,9.9,21.44,22.12S211.84,262.24,200,262.24Z" transform="translate(-2 -71)"/><path class="cls-4" d="M200,198.27c-22.41,0-40.58,18.74-40.58,41.86S177.59,282,200,282s40.58-18.74,40.58-41.85S222.41,198.27,200,198.27Zm0,74.06c-17.25,0-31.22-14.42-31.22-32.2s14-32.19,31.22-32.19,31.22,14.42,31.22,32.19S217.24,272.33,200,272.33Z" transform="translate(-2 -71)"/><path class="cls-5" d="M349.26,208.35c-.78,0-1.54,0-2.3.07C340.77,131.47,277.59,71,200.56,71c-1.2,0-2.38,0-3.58,0C122.06,72.87,61.05,131.92,54.29,207c-1.17-.09-2.36-.13-3.55-.13C23.82,206.86,2,229.12,2,256.58s22,52.9,48.74,49.73c3.64-.43,14.32-.65,20.62-3.06C63.08,289,57.82,270.8,57.17,250.88a115.76,115.76,0,0,1,7.63-46.23C74.43,136.55,134.57,83.44,200.56,87c76.11,4.12,129.39,53.05,134.8,119.05a117.34,117.34,0,0,1,5.93,42.85c-.81,19.18-5.88,36.69-13.77,50.64,7.56,8.25,18.07,8.25,21.74,8.25,26.92,0,48.74-22.26,48.74-49.72S376.18,208.35,349.26,208.35Z" transform="translate(-2 -71)"/><text class="cls-6" transform="matrix(0.91, -0.14, 0.15, 0.99, 129.06, 263.6)">B</text><text class="cls-7" transform="matrix(0.91, -0.14, 0.15, 0.99, 129.03, 258.98)">B</text><text class="cls-8" transform="matrix(1.08, 0.05, -0.04, 1, 163.62, 267.33)">W</text><text class="cls-9" transform="matrix(1.08, 0.04, -0.04, 1, 164.57, 263.64)">W</text><text class="cls-10" transform="matrix(1.07, -0.16, 0.15, 0.99, 213.25, 263.63)">M</text><text class="cls-11" transform="matrix(1.07, -0.17, 0.15, 0.99, 213.27, 258.96)">M</text></svg>